<?xml version="1.0" standalone="no"?>
<!DOCTYPE svg PUBLIC "-//W3C//DTD SVG 20010904//EN"
 "http://www.w3.org/TR/2001/REC-SVG-20010904/DTD/svg10.dtd">
<svg version="1.0" xmlns="http://www.w3.org/2000/svg"
 width="260.000000pt" height="260.000000pt" viewBox="0 0 260.000000 260.000000"
 preserveAspectRatio="xMidYMid meet">
<metadata>
Created by potrace 1.14, written by Peter Selinger 2001-2017
</metadata>
<g transform="translate(0.000000,260.000000) scale(0.100000,-0.100000)"
fill="#000000" stroke="none">
<path d="M1990 2494 c-30 -7 -66 -16 -80 -19 -14 -3 -74 -16 -135 -30 -60 -14
-122 -28 -137 -32 -21 -4 -32 0 -45 15 -31 37 -66 38 -106 2 -20 -17 -39 -40
-42 -51 -4 -10 -13 -19 -21 -19 -8 0 -60 -11 -117 -24 -56 -14 -268 -64 -472
-111 -589 -137 -788 -184 -812 -191 l-23 -6 0 -559 c0 -308 3 -559 6 -559 4 0
23 15 43 33 20 17 62 53 92 78 29 25 104 88 165 140 61 52 162 137 224 189 62
52 129 110 149 128 45 42 81 58 151 66 75 9 119 15 275 36 39 6 88 12 110 15
22 2 90 11 150 19 207 29 208 29 200 16 -4 -6 -4 -27 -1 -45 8 -43 61 -86 108
-88 l33 -2 -4 -60 c-2 -33 -5 -71 -6 -85 -2 -14 -3 -35 -4 -47 -1 -17 -10 -25
-37 -32 -20 -6 -47 -20 -60 -32 -13 -12 -34 -27 -46 -33 -47 -24 -29 -76 26
-76 24 0 38 8 54 30 13 17 27 30 31 30 11 0 3 -111 -11 -166 -10 -37 -17 -44
-77 -72 -127 -61 -267 -219 -307 -347 -45 -142 55 -381 194 -462 112 -66 261
-63 404 9 139 68 207 184 208 349 0 157 -104 388 -207 460 -20 13 -23 27 -27
90 -4 83 -10 115 -26 134 -13 16 -16 66 -6 120 19 109 26 169 27 214 1 45 4
51 31 62 35 14 61 65 47 90 -7 14 0 18 54 24 34 4 71 9 82 10 42 7 102 15 150
20 28 3 61 8 75 10 23 4 43 7 149 20 18 2 35 6 38 9 6 6 -9 115 -37 261 -17
91 -21 110 -27 157 -4 35 -14 54 -37 76 -32 30 -283 233 -301 243 -5 4 -35 0
-65 -7z m-201 -1670 c38 -25 45 -34 79 -95 63 -113 79 -262 37 -346 -66 -131
-291 -183 -403 -92 -58 47 -105 143 -111 226 -7 107 121 267 250 312 59 21
110 19 148 -5z"/>
</g>
</svg>
